<svg width="373" height="352" viewBox="0 0 373 352" fill="none" xmlns="http://www.w3.org/2000/svg">
<g filter="url(#filter0_d_1_54)">
<ellipse cx="186.5" cy="172" rx="182.5" ry="172" fill="black"/>
<path d="M186.5 0.5C287.044 0.5 368.5 77.3107 368.5 172C368.5 266.689 287.044 343.5 186.5 343.5C85.9558 343.5 4.5 266.689 4.5 172C4.5 77.3107 85.9558 0.5 186.5 0.5Z" stroke="black"/>
</g>
<path d="M156.08 175.692C157.33 176.648 158.579 177.657 159.855 178.749C165.839 183.815 170.984 190.067 176.555 194.5C177.67 195.369 178.769 196.138 179.838 196.774C184.657 199.706 189.828 202.047 195.193 204.645C199.163 206.582 202.785 208.538 206.076 210.315C208.342 211.545 210.625 212.647 213.046 213.688C212.697 213.568 212.66 213.582 212.684 213.596C212.713 213.613 212.823 213.649 212.962 213.686C213.239 213.761 213.64 213.848 214.054 213.927C214.9 214.088 215.868 214.237 216.856 214.374C218.846 214.647 220.939 214.879 223.042 215.092C227.278 215.517 231.577 215.869 235.9 216.199C239.567 216.477 243.238 216.735 246.933 216.982C250.307 217.209 254.458 217.519 258.682 219.161C262.824 220.809 265.557 222.812 268.258 224.57C269.679 225.516 270.989 226.408 272.387 227.365C282.127 234.169 291.976 241.093 300.391 250.376C302.026 252.199 303.486 254.17 304.745 255.489C308.781 259.635 313.088 263.863 315.455 269.915C315.624 270.384 315.773 270.863 315.898 271.351C315.919 271.406 315.956 271.577 315.97 271.634C316.269 274.772 316.343 277.85 316.439 280.9C316.503 282.548 316.515 284.299 316.78 285.723C317.007 286.629 317.211 287.596 317.328 288.538C317.376 288.906 317.319 289.276 317.171 289.564C317.022 289.852 316.795 290.034 316.538 290.078C316.28 290.12 316.007 290.021 315.77 289.813C315.533 289.604 315.351 289.303 315.252 288.978C314.997 288.134 314.701 287.388 314.334 286.539C313.614 284.477 313.411 282.936 313.049 281.222C312.484 278.343 311.94 275.519 311.238 272.808C311.462 272.668 311.67 272.522 311.86 272.364L311.938 272.671C312.517 272.106 312.848 271.393 312.711 270.483C312.624 269.882 312.257 269.087 311.745 268.668C311.287 268.29 310.782 268.13 310.304 267.992C309.803 267.846 309.333 267.73 308.938 267.41C308.267 266.869 307.394 266.565 306.476 266.278C306.139 266.171 305.8 266.072 305.458 265.96C303.652 264.386 301.699 262.894 299.683 261.436C299.472 261.278 299.265 261.118 299.066 260.958C298.189 260.001 297.541 259.178 296.925 258.606C296.373 258.09 295.759 257.781 295.099 257.516C294.797 257.258 294.484 256.994 294.176 256.741C292.178 255.09 290.101 253.596 287.893 252.129C286.458 250.645 284.869 249.121 282.584 247.382C281.592 246.628 280.651 245.803 279.775 245.042C278.424 243.879 277.16 242.817 275.867 242.177C274.968 241.728 274.231 241.086 273.426 240.408C272.379 239.519 271.295 238.619 270.043 238.345C269.252 238.17 268.47 238.069 267.738 237.973C266.621 237.849 265.621 237.731 264.874 237.325C263.763 236.723 262.674 236.361 261.637 236.048C261.405 235.979 261.184 235.916 260.971 235.857C259.553 235.457 258.415 235.163 257.723 234.425C257.617 234.313 257.506 234.18 257.376 234.028C256.711 233.247 255.61 231.953 253.819 231.788C253.18 231.732 252.539 231.924 251.905 232.141C250.975 232.457 250.052 232.822 248.998 232.576C248.84 232.539 248.673 232.409 248.524 232.291C248.334 232.141 248.151 232.01 248.049 232.116C247.757 232.407 247.309 232.726 246.8 233.077C246.759 233.102 246.719 233.127 246.678 233.153C246.233 233.432 245.764 233.727 245.333 234.038C242.051 234.183 238.764 234.303 235.457 234.388C233.955 234.428 232.421 234.459 230.91 234.483C230.144 233.977 229.367 233.517 228.542 233.159C227.457 232.69 226.052 232.506 224.218 232.248C222.866 232.058 221.294 231.83 219.461 231.409C216.056 230.622 212.581 230.456 209.733 230.212C209.11 230.149 208.476 230.098 207.432 229.837C207.262 229.793 207.085 229.742 206.897 229.682C204.964 229.216 202.454 228.626 198.088 226.886C193.784 225.145 190.548 223.332 188.189 222.084C187.364 221.643 186.643 221.259 186.02 220.942C185.723 220.79 185.45 220.654 185.196 220.531C183.832 219.873 182.159 219.027 180.465 218.148C177.815 216.779 175.124 215.308 173.557 214.538C172.999 214.265 172.405 213.985 171.768 213.678C171.063 213.339 170.302 212.967 169.465 212.534C168.005 211.751 166.43 210.787 164.749 209.601C161.839 207.533 160.4 206.141 158.948 204.606C158.363 203.983 158.058 203.196 157.744 202.384C157.301 201.235 156.839 200.037 155.555 199.221C155.25 199.026 154.908 198.872 154.535 198.699C153.861 198.389 153.133 198.059 152.566 197.486C152.373 197.29 152.253 197.051 152.134 196.815C152 196.554 151.876 196.305 151.652 196.117C150.81 195.412 149.969 194.78 149.205 194.212C148.893 193.98 148.593 193.757 148.313 193.546C147.727 193.103 147.238 192.71 146.927 192.384C146.108 191.525 144.983 190.838 143.832 190.111C142.954 189.558 142.056 188.977 141.287 188.298C139.083 186.359 135.851 183.837 132.578 181.182C131.339 180.179 130.6 179.028 129.693 177.553C129.137 176.643 128.5 175.585 127.667 174.369C127.182 173.664 126.566 173.29 125.975 172.916C125.446 172.588 124.942 172.264 124.655 171.76C124.404 171.318 124.494 170.829 124.581 170.364C124.673 169.843 124.775 169.37 124.386 169.007C124.181 168.816 123.813 168.663 123.386 168.49C123.217 168.423 123.037 168.349 122.852 168.267C122.918 168.226 122.973 168.185 123.014 168.152C123.303 167.923 123.122 167.384 122.942 166.848C122.872 166.637 122.805 166.43 122.767 166.243C122.698 165.899 122.489 165.483 122.224 165.058C121.974 164.654 121.664 164.239 121.384 163.886C121.152 163.594 121.034 163.254 120.895 162.853C120.767 162.491 120.642 162.107 120.392 161.651C120.251 161.393 120.198 161.147 120.16 160.95C120.132 160.806 120.107 160.683 120.056 160.591C120.011 160.511 119.882 160.517 119.737 160.523C119.633 160.527 119.52 160.532 119.424 160.505C119.194 160.442 119.008 160.27 118.944 160.108C118.914 160.032 118.909 159.958 118.905 159.885C118.899 159.799 118.895 159.713 118.849 159.624C118.639 159.22 118.269 158.931 117.898 158.647C117.489 158.333 117.052 157.991 116.79 157.466C116.707 157.3 116.652 157.097 116.598 156.901C116.541 156.695 116.485 156.495 116.402 156.352C116.07 155.772 115.485 155.433 114.945 155.116C114.589 154.909 114.251 154.712 114.023 154.464C113.603 154.008 113.155 153.938 112.822 153.883C112.65 153.855 112.509 153.832 112.421 153.764C112.369 153.68 112.317 153.593 112.268 153.508C112.232 153.422 112.196 153.333 112.138 153.267C112.133 153.262 112.128 153.258 112.124 153.253C111.858 152.768 111.625 152.274 111.392 151.779C110.872 150.672 110.359 149.577 109.502 148.653C109.318 148.454 109.049 148.312 108.776 148.167C108.441 147.989 108.098 147.807 107.895 147.514C107.412 146.815 107.074 145.997 106.741 145.193C106.241 143.983 105.752 142.801 104.797 142.09C104.482 141.856 104.112 141.674 103.74 141.491C103.532 141.389 103.324 141.288 103.125 141.177C103.29 141.109 103.435 141.031 103.57 140.958C103.847 140.807 104.085 140.679 104.387 140.704C105.099 140.762 106.013 140.752 106.41 140.382C106.518 140.282 106.656 140.195 106.797 140.109C107.148 139.892 107.508 139.671 107.398 139.205C107.324 138.89 107.107 138.105 106.568 137.907C106.45 137.863 106.302 137.893 106.138 137.926C105.844 137.985 105.494 138.053 105.161 137.731C105.105 137.677 105.046 137.617 104.986 137.554C104.748 137.304 104.478 137.02 104.217 137.035C103.915 137.051 103.706 137.252 103.461 137.485C103.143 137.79 102.764 138.151 102.048 138.238C101.907 138.255 101.792 138.172 101.705 138.109C101.644 138.065 101.597 138.032 101.564 138.05C101.526 138.071 101.468 138.142 101.395 138.233C101.138 138.553 100.688 139.11 100.22 138.531C100.092 138.373 99.9791 138.166 99.8789 137.982C99.731 137.71 99.6089 137.486 99.4976 137.527C99.4556 137.542 99.4127 137.563 99.3695 137.586C99.2357 137.384 99.1017 137.182 98.9658 136.977C98.8866 136.645 98.615 136.301 98.2784 135.876C98.1953 135.771 98.1083 135.661 98.0194 135.545C97.7521 135.141 97.4937 134.75 97.2253 134.345C97.0418 134.005 96.8742 133.626 96.7395 133.201C96.4576 132.331 96.4105 131.454 96.351 130.58C96.3266 130.213 96.3116 129.861 96.2667 129.499C96.3575 129.581 96.4461 129.654 96.5239 129.696C97.0631 129.993 97.596 129.88 98.0855 129.775C98.4108 129.705 98.7211 129.643 98.9978 129.705C99.5056 129.819 99.7964 129.551 100.011 129.352C100.122 129.249 100.214 129.166 100.305 129.164C100.377 129.163 100.459 129.225 100.544 129.29C100.618 129.346 100.694 129.405 100.768 129.424C101.663 129.655 101.8 129.281 101.998 128.734C102.107 128.433 102.237 128.081 102.522 127.75C102.835 127.414 102.956 127.355 103.329 127.549C103.329 127.178 103.331 126.809 103.333 126.442C103.254 126.36 103.088 126.373 102.828 126.414C102.361 126.484 101.813 126.01 101.379 125.634C101.177 125.459 101.003 125.308 100.875 125.246C100.199 124.915 99.944 125.358 99.7175 125.744C99.5931 125.957 99.4779 126.154 99.3076 126.198C99.2349 126.217 99.2051 126.292 99.1744 126.368C99.1506 126.426 99.1267 126.486 99.0823 126.521C98.7575 126.776 98.2805 126.654 97.8255 126.527C97.5663 126.455 97.3196 126.389 97.1214 126.401C97.061 126.405 97.0041 126.414 96.9493 126.425C96.8694 126.439 96.7927 126.453 96.7118 126.445C96.5266 126.424 96.2992 126.277 96.0401 126.102C95.9086 126.014 95.7719 125.923 95.6335 125.845C95.4543 125.745 95.284 125.791 95.1056 125.839C94.9795 125.873 94.8492 125.907 94.7097 125.893C94.4555 125.866 94.1791 125.617 93.9298 125.396C93.8208 125.299 93.7157 125.208 93.618 125.138C93.5786 125.11 93.5416 125.108 93.5081 125.128C93.1822 124.863 92.8694 124.619 92.5683 124.391C92.4551 124.302 92.3433 124.214 92.2328 124.128C90.1406 122.508 88.332 121.109 86.6026 118.253C86.2842 117.724 85.8492 117.197 85.382 116.704C84.1678 114.906 82.9571 113.109 81.755 111.359C81.7829 110.805 81.6987 110.209 81.5067 109.595C81.2487 108.777 80.8456 108.079 80.3388 107.355C80.1275 107.053 79.9002 106.748 79.6579 106.428C79.0487 105.623 78.3501 104.728 77.6136 103.57C76.3786 101.619 74.9658 99.6472 73.2828 97.3906C72.6919 96.5952 72.0754 95.7408 71.4854 94.8674C70.5255 93.4316 69.4871 92.0014 68.6592 90.8656C67.96 89.9094 67.4677 88.7012 67.0335 87.5689C66.4182 85.9737 65.9303 84.5355 64.9655 84.0736C64.6569 83.9264 64.2403 83.8534 63.8349 83.7779C63.5458 83.7236 63.2623 83.6666 63.027 83.5829C62.8016 83.1156 62.5826 82.6467 62.3702 82.1721C62.2742 81.4253 62.0707 80.4248 61.563 79.5246C61.3782 79.1923 61.1727 78.8651 60.9356 78.5578C60.7583 77.9924 60.6124 77.4282 60.4972 76.9005C60.2385 75.7383 60.0793 74.6377 59.9573 73.5326C59.9183 73.1718 59.8837 72.8093 59.8536 72.4482C59.8533 72.4448 59.8531 72.4413 59.8529 72.4379C59.792 71.7087 59.7482 70.9801 59.7194 70.2654C59.7069 69.9595 59.6968 69.6537 59.6889 69.3491C59.6687 68.5742 59.6621 67.7965 59.6695 67.0347C59.6736 66.6322 59.6801 66.2249 59.6905 65.8184C59.7076 65.1615 59.7324 64.4939 59.7666 63.8356C59.822 62.7714 59.8988 61.7142 60.0049 60.6508C60.0226 60.4799 60.084 60.3101 60.1786 60.1874C60.2734 60.0653 60.3929 59.9999 60.516 60C60.6391 60.0004 60.7587 60.0661 60.8542 60.1859C60.9492 60.3065 61.0118 60.4713 61.0335 60.6383C61.1657 61.6788 61.3244 62.7082 61.5012 63.736C61.6107 64.3712 61.7292 65.0124 61.8531 65.6393C61.9296 66.0274 62.0083 66.4145 62.0899 66.7958C62.2438 67.5171 62.4099 68.2491 62.5864 68.9689C62.6559 69.2518 62.7274 69.5344 62.8009 69.8157C62.973 70.4745 63.1572 71.1383 63.3542 71.79C63.3554 71.7939 63.3566 71.7979 63.3577 71.8018C63.4546 72.1215 63.5548 72.439 63.6579 72.7515C63.9746 73.7145 64.32 74.6442 64.722 75.5445C64.9313 76.0055 65.161 76.4733 65.4072 76.9034C65.5138 77.0888 65.6281 77.2772 65.7389 77.4434C65.7726 77.4963 65.8064 77.5489 65.84 77.6011C65.9276 77.7378 66.0161 77.8747 66.1065 78.0131C68.1882 81.182 70.638 84.0237 73.2792 86.8772C74.4571 88.1534 75.6739 89.4339 76.8979 90.7995C78.2356 92.259 79.7245 93.649 81.2965 95.0666C83.3477 96.915 85.5338 98.8243 87.6676 100.913C88.5025 101.728 89.3256 102.569 90.1182 103.397C94.353 107.853 98.322 112.252 102.367 116.719C113.719 129.444 124.286 142.566 134.958 155.187C136.374 156.849 137.8 158.478 139.247 160.074C141.516 162.576 143.885 165.049 146.248 167.313C148.646 169.615 151.033 171.704 153.613 173.766C154.398 174.393 155.216 175.031 156.08 175.692Z" fill="#0FFAEA"/>
<path d="M58.591 100.973C60.7516 97.4708 63.1523 94.224 65.6709 91.1022C71.5508 83.7434 78.9766 79.5571 85.9252 75.5774C91.2431 72.5753 96.534 69.8571 101.816 67.2593C109.438 63.4662 117.091 59.622 123.879 55.9245C124.667 55.4948 125.487 55.0369 126.37 54.5525C133.953 50.3256 142.522 47.6994 150.731 46.4612C156.552 45.5313 162.613 45.0687 168.289 44.8662C170.571 44.7786 172.823 44.7172 175.077 44.6646C182.941 44.6969 190.11 42.7897 199.18 41.3506C202.771 40.8273 206.081 40.3664 209.504 39.7643C214.656 38.8693 219.856 37.8161 225.073 36.7179C234.073 34.8032 243.371 33.8459 252.62 34.5521C258.16 34.983 263.734 36.0213 268.982 37.9793C272.699 39.3307 277.034 40.2143 281.221 41.0784C284.367 41.7117 287.537 42.2914 290.706 42.8636L290.642 42.8576C291.704 42.9887 292.747 43.2071 293.758 43.491C295.354 43.9389 296.865 44.5408 298.33 45.1917L298.21 45.1571C299.62 45.5281 301.202 45.6446 302.759 45.7554C303.195 45.7851 303.614 45.8921 303.924 46.0612C304.233 46.2306 304.408 46.4472 304.407 46.6711C304.407 46.8951 304.231 47.1123 303.919 47.2807C303.608 47.4486 303.184 47.5531 302.739 47.5747C301.139 47.64 299.54 47.7299 297.737 47.4746C297.688 47.4624 297.543 47.425 297.496 47.4052C296.001 46.9392 294.516 46.5474 293.053 46.324C292.167 46.1881 291.29 46.1144 290.42 46.1105C290.399 46.1083 290.337 46.1041 290.316 46.1007C287.762 45.9392 285.194 45.7711 282.623 45.5715C282.19 44.5858 281.525 43.7945 280.151 43.2865C279.449 43.0273 278.405 42.8057 277.603 42.8524C276.884 42.8951 276.314 43.079 275.769 43.2521C275.202 43.4334 274.657 43.6022 273.999 43.5761C272.882 43.5309 271.766 43.7108 270.566 43.8645C270.131 43.9205 269.682 43.9723 269.211 44.0042C268.568 43.8793 267.921 43.7409 267.249 43.5678C264.752 42.9488 262.201 42.5534 259.616 42.3383C258.424 42.07 257.314 41.8736 256.345 41.8297C255.495 41.7921 254.693 41.9361 253.892 42.1411C253.413 42.1473 252.904 42.1578 252.419 42.1747C249.233 42.2811 246.067 42.606 242.908 43.1072C240.401 43.1219 237.757 43.2447 234.36 43.8026C232.884 44.0471 231.43 44.2316 230.026 44.4376C229.053 44.5822 228.154 44.7238 227.251 44.9093C226.161 45.1352 225.155 45.3806 224.239 45.6932C223.1 46.0818 221.84 46.2725 220.595 46.4547C218.916 46.7016 217.232 46.9402 215.825 47.6429C214.951 48.0822 214.132 48.5534 213.395 48.9817C212.206 49.6668 211.158 50.259 210.142 50.5045C208.237 50.9653 206.622 51.5873 205.207 52.1237C203.797 52.658 202.598 53.1076 201.505 53.2306C201.278 53.2559 201.058 53.2671 200.841 53.2618C200.653 53.2566 200.425 53.2457 200.175 53.2321C198.858 53.159 196.744 53.0752 193.839 54.0841C192.801 54.4422 191.851 54.9525 190.894 55.4479C189.503 56.1686 188.085 56.8611 186.435 56.9897C186.187 57.0093 185.918 56.9492 185.671 56.8936C185.356 56.8232 185.085 56.7593 184.949 56.8762C184.548 57.22 183.882 57.6314 183.156 58.0653C182.618 58.385 182.042 58.718 181.516 59.0516C179.661 59.3373 177.84 59.558 176.01 59.735C173.792 59.9559 171.594 60.18 169.42 60.421C167.672 60.6152 165.932 60.8214 164.23 61.0504C163.315 60.7262 162.383 60.4518 161.413 60.2837C160.141 60.0651 158.545 60.1564 156.48 60.3414C155.543 60.4254 154.51 60.5293 153.354 60.6349C152.656 60.6966 151.92 60.7606 151.142 60.8257C147.378 61.1252 143.761 62.3762 141.623 63.4842C141.168 63.7162 140.716 63.9576 140.239 64.2238C138.741 65.0698 136.959 66.0983 134.122 68.0211C133.498 68.4424 132.795 68.9188 131.991 69.447C127.423 72.4535 123.29 74.476 120.284 75.9548C118.735 76.7104 117.471 77.3118 116.493 77.8067C114.836 78.646 112.792 79.6337 110.738 80.611C109.85 81.0333 108.995 81.4387 108.121 81.8517C105.934 82.889 103.981 83.8727 102.764 84.5615C102.167 84.8985 101.547 85.2646 100.889 85.6606C99.0614 86.764 96.8715 88.1043 93.9853 89.8938C90.9716 91.7818 89.1817 92.8682 87.3116 93.9595C86.5569 94.4047 85.7442 94.5927 84.9075 94.8096C83.7276 95.1152 82.4711 95.492 81.4906 96.6986C81.2641 96.9791 81.0592 97.3115 80.8566 97.6586C80.4825 98.2983 80.1187 98.985 79.5821 99.5409C79.3948 99.735 79.1767 99.8637 78.963 99.9943C78.8099 100.088 78.6596 100.182 78.5272 100.299C78.4433 100.381 78.3639 100.469 78.291 100.568C77.5097 101.627 76.7934 102.693 76.1666 103.641C75.358 104.864 74.6929 105.898 74.2031 106.485C73.3287 107.532 72.6294 108.85 71.944 110.186C71.4191 111.209 70.904 112.24 70.3113 113.181C68.6193 115.866 66.6569 119.784 65.1627 123.865C64.6029 125.402 63.8416 126.555 62.9385 128.036C62.7036 128.423 62.4603 128.832 62.2157 129.269C61.8734 129.883 61.5203 130.572 61.1689 131.378C60.8275 132.161 60.8001 132.93 60.7898 133.621C60.7778 134.267 60.7763 134.86 60.5436 135.421C60.3397 135.911 59.9432 136.163 59.5669 136.405C59.1508 136.663 58.752 136.943 58.6916 137.503C58.6583 137.806 58.7366 138.21 58.8367 138.676C58.8758 138.862 58.917 139.062 58.9555 139.275C58.8928 139.251 58.8353 139.237 58.7915 139.228C58.4814 139.166 58.2033 139.693 57.931 140.246C57.8241 140.457 57.7183 140.671 57.6112 140.845C57.2136 141.497 56.9433 142.783 56.7927 143.814C56.7307 144.236 56.5737 144.608 56.3909 145.054C56.2302 145.441 56.0509 145.873 55.9014 146.46C55.8176 146.785 55.6924 147.026 55.5879 147.228C55.5123 147.375 55.4478 147.501 55.4193 147.622C55.3946 147.727 55.4732 147.826 55.5618 147.936C55.6257 148.014 55.6953 148.097 55.7352 148.194C55.8306 148.426 55.8323 148.711 55.7681 148.905C55.7384 148.994 55.6944 149.062 55.6506 149.131C55.5997 149.21 55.5485 149.289 55.52 149.404C55.3911 149.919 55.4347 150.437 55.4804 150.992C55.5323 151.588 55.5888 152.206 55.4269 152.887C55.3766 153.095 55.288 153.315 55.2023 153.53C55.1125 153.754 55.0259 153.975 54.9901 154.168C54.8448 154.947 55.0052 155.686 55.1529 156.393C55.2527 156.846 55.3473 157.279 55.345 157.677C55.34 158.417 55.5831 158.807 55.7612 159.11C55.8536 159.265 55.9297 159.392 55.9461 159.521C55.93 159.636 55.9124 159.754 55.8942 159.87C55.8665 159.975 55.838 160.085 55.8372 160.189C55.8371 160.197 55.8377 160.205 55.8377 160.213C55.7268 160.845 55.5911 161.469 55.4571 162.105C55.1583 163.497 54.8716 164.89 54.9131 166.397C54.922 166.722 55.0187 167.044 55.1168 167.381C55.2371 167.793 55.3608 168.218 55.3318 168.647C55.2756 169.477 55.113 170.304 54.9349 171.15C54.8975 171.324 54.8594 171.498 54.8213 171.673C54.4926 173.203 54.177 174.677 54.4286 176.064C54.5114 176.53 54.66 176.965 54.8097 177.416C54.8931 177.666 54.9774 177.918 55.0502 178.174C54.9033 178.116 54.7648 178.083 54.6356 178.053C54.3693 177.991 54.1415 177.936 53.9537 177.689C53.51 177.103 52.8957 176.445 52.4316 176.502C52.3057 176.518 52.1665 176.498 52.0265 176.477C51.675 176.423 51.3161 176.368 51.1375 176.89C51.0173 177.238 50.7383 178.169 50.9923 178.75C51.0476 178.878 51.162 178.959 51.2891 179.048C51.5175 179.21 51.7879 179.401 51.8373 179.96C51.8456 180.054 51.8526 180.158 51.8589 180.262C51.8842 180.677 51.9122 181.145 52.0948 181.326C52.3052 181.533 52.553 181.496 52.842 181.453C53.2183 181.397 53.6653 181.33 54.1909 181.779C54.2947 181.868 54.327 182.033 54.3515 182.159C54.3687 182.247 54.3827 182.313 54.4144 182.321C54.4509 182.329 54.5278 182.303 54.6252 182.271C54.9688 182.152 55.5685 181.955 55.572 182.854C55.5729 183.098 55.538 183.377 55.5065 183.629C55.4601 183.999 55.4219 184.31 55.5184 184.352C55.5549 184.368 55.5947 184.38 55.636 184.389C55.6176 184.682 55.5994 184.975 55.5812 185.27C55.4569 185.643 55.4551 186.184 55.4544 186.84C55.4542 187.001 55.4536 187.17 55.4517 187.346C55.4158 187.927 55.3804 188.513 55.345 189.091C55.287 189.55 55.1977 190.042 55.0612 190.559C54.7878 191.587 54.3521 192.494 53.927 193.366C53.7478 193.735 53.5701 194.102 53.4075 194.476C53.3904 194.329 53.3696 194.197 53.3398 194.095C53.1357 193.397 52.7176 193.113 52.3328 192.851C52.0768 192.677 51.8354 192.513 51.6824 192.243C51.4022 191.748 51.0642 191.792 50.8142 191.824C50.6845 191.84 50.5783 191.852 50.5165 191.786C50.467 191.733 50.4453 191.611 50.4229 191.486C50.4033 191.377 50.3829 191.264 50.3435 191.192C49.8651 190.312 49.5739 190.569 49.1501 190.942C48.9164 191.148 48.6422 191.39 48.274 191.497C47.8845 191.587 47.7716 191.552 47.6251 191.092C47.4273 191.445 47.2297 191.8 47.0322 192.155C47.0424 192.296 47.1603 192.406 47.3569 192.557C47.7078 192.828 47.8238 193.697 47.9151 194.38C47.9573 194.697 47.9945 194.968 48.0467 195.123C48.3247 195.947 48.7317 195.715 49.0897 195.51C49.2868 195.397 49.4692 195.293 49.6071 195.378C49.666 195.414 49.7258 195.364 49.7867 195.314C49.8339 195.276 49.8818 195.236 49.9305 195.235C50.2842 195.23 50.5396 195.717 50.7772 196.171C50.9132 196.431 51.0437 196.679 51.183 196.817C51.2254 196.859 51.2688 196.892 51.311 196.923C51.3726 196.969 51.4312 197.014 51.4811 197.083C51.5946 197.24 51.6684 197.563 51.749 197.917C51.7902 198.098 51.8334 198.288 51.8847 198.468C51.9513 198.7 52.0902 198.786 52.2352 198.876C52.3377 198.939 52.4433 199.006 52.5295 199.126C52.6853 199.345 52.7375 199.783 52.7861 200.19C52.8073 200.367 52.8285 200.538 52.8565 200.683C52.8679 200.742 52.8917 200.77 52.9246 200.777C53.0283 201.447 53.1351 202.082 53.2402 202.704C53.7678 205.817 54.2307 208.505 53.8738 212.517C53.8065 213.277 53.819 214.087 53.8719 214.913C53.7338 217.546 53.5998 220.178 53.4725 222.81C53.1578 223.334 52.8954 223.978 52.6925 224.73C52.3118 226.154 52.2442 227.614 52.1701 229.33C52.1156 230.607 52.0572 232.017 51.8702 233.672C51.7547 234.686 51.65 235.728 51.5606 236.768C51.4074 238.589 51.3029 240.472 51.2788 242.501C51.2388 245.697 51.3097 249.34 51.4315 251.932C51.4961 253.337 51.3123 254.831 51.1493 256.232C50.9192 258.195 50.7289 259.964 51.3021 260.989C51.4847 261.309 51.7813 261.621 52.0692 261.917C52.2743 262.128 52.4741 262.328 52.6287 262.541C52.638 263.131 52.6487 263.721 52.6586 264.305C52.4303 265.378 52.2337 267.017 52.7359 268.561C52.7462 269.17 52.7563 269.779 52.7632 270.378C52.781 271.671 52.7894 272.941 52.7762 274.238C52.7749 274.35 52.7734 274.461 52.7716 274.572C52.7671 274.885 52.7622 275.194 52.7566 275.497C52.7564 275.501 52.7563 275.505 52.7562 275.509C52.7423 276.365 52.7253 277.201 52.7069 278.049C52.6984 278.399 52.6909 278.773 52.6817 279.124C52.6599 280.04 52.6357 280.959 52.6072 281.862C52.5917 282.337 52.576 282.816 52.5593 283.307C52.5316 284.092 52.5014 284.884 52.467 285.67C52.4111 286.944 52.3469 288.206 52.2593 289.483C52.2447 289.694 52.1924 289.894 52.1113 290.042C52.0302 290.189 51.9276 290.273 51.8222 290.269C51.7166 290.272 51.6141 290.188 51.5323 290.042C51.4507 289.896 51.3968 289.7 51.3777 289.492C51.261 288.229 51.1229 286.979 50.9786 285.719C50.8891 284.942 50.7955 284.16 50.7009 283.384C50.6423 282.899 50.5839 282.426 50.5245 281.956C50.4125 281.064 50.2968 280.155 50.1801 279.251C50.1345 278.904 50.0874 278.535 50.0413 278.189C49.9315 277.35 49.8213 276.522 49.7086 275.676C49.708 275.671 49.7073 275.666 49.7067 275.661C49.6669 275.366 49.6267 275.067 49.5861 274.764C49.5711 274.655 49.5559 274.546 49.5405 274.435C49.3675 273.191 49.1744 271.96 48.9734 270.697C48.8668 270.039 48.7581 269.367 48.6474 268.685C48.5862 268.311 48.5242 267.931 48.4635 267.563C48.4308 267.363 48.3978 267.158 48.3644 266.95C47.5887 262.223 46.8621 257.492 46.2471 252.698C45.6306 247.924 45.1149 243.121 44.6885 238.33C44.6479 237.875 44.6079 237.415 44.5686 236.951C44.1983 232.622 43.8864 228.27 43.6112 223.944C42.5109 206.233 41.8511 188.523 41.7414 170.67C41.7679 157.688 42.0746 144.686 45.1376 131.004C45.7014 128.595 46.4027 126.109 47.2584 123.666C48.0637 121.366 48.9619 119.188 49.905 117.089C51.8768 112.72 54.0303 108.688 56.3663 104.678C57.0769 103.46 57.8168 102.228 58.591 100.973Z" fill="#6DC4FA"/>
<path d="M110.649 147.805C112.375 143.592 115.198 140.058 117.359 137.471C121.865 131.988 126.962 127.01 132.435 122.127C139.712 115.178 150.84 108.929 157.517 105.388C161.804 102.768 165.116 101.927 168.572 100.966C177.139 98.7786 185.472 97.5784 193.175 95.869C198.615 94.7159 202.961 94.4508 207.517 93.871C211.891 93.3513 216.174 92.7758 220.254 91.9196C229.686 89.9401 238.146 90.4816 246.558 90.2305C247.977 90.2086 249.397 90.1842 250.826 90.1556C262.304 90.0127 273.339 89.0928 285.19 88.2695C286.91 88.2105 288.683 88.2345 290.438 88.3932C297.643 89.059 304.836 90.0557 311.893 91.5542C315.714 92.352 319.477 93.3611 323.172 94.3426C323.776 94.4966 324.379 94.645 324.958 94.7532C324.964 94.7537 324.982 94.7567 324.987 94.7574C326.074 94.9948 327.025 95.3735 327.963 95.5866C329.107 95.8024 330.407 96.0992 331.554 96.5142C331.937 96.6471 332.281 96.8472 332.507 97.0676C332.735 97.289 332.827 97.5103 332.77 97.6876C332.709 97.8643 332.503 97.986 332.194 98.0345C331.887 98.0833 331.505 98.0558 331.13 97.9699C329.953 97.6889 328.976 97.5791 327.646 97.4625C326.495 97.3172 325.495 97.0403 324.626 96.9557L324.68 96.9635C323.96 96.9053 323.288 96.8099 322.623 96.713C319.393 96.2149 316.27 95.7117 313.118 95.3524C312.752 94.5141 312.16 93.8239 310.922 93.3742C310.279 93.143 309.327 92.9496 308.611 92.9952C307.95 93.0334 307.458 93.1991 306.972 93.356C306.455 93.5192 306.006 93.681 305.409 93.6869C304.419 93.7001 303.453 93.9213 302.44 94.1618C302.063 94.2486 301.706 94.3408 301.319 94.4245C298.272 94.2911 295.27 94.2353 292.222 94.2364C291.516 94.1514 290.846 94.0774 290.207 94.0316C289.832 94.0037 289.481 93.9932 289.15 94.0027C288.39 94.0246 287.694 94.206 287.009 94.4435C286.574 94.4899 286.136 94.5439 285.693 94.6039C282.843 94.9966 279.827 95.6018 276.781 96.1452C274.376 96.2556 271.825 96.3793 268.537 96.6509C267.114 96.7681 265.709 96.8007 264.366 96.824C262.386 96.8581 260.472 96.8778 258.88 97.119C257.765 97.2843 256.644 97.2634 255.483 97.2413C254.047 97.2128 252.631 97.1761 251.306 97.4834C251.209 97.5061 251.113 97.5306 251.018 97.5571C250.158 97.7988 249.366 98.0746 248.647 98.3286C247.477 98.7342 246.477 99.0854 245.539 99.1607C243.789 99.3013 242.288 99.629 240.97 99.9191C239.384 100.268 238.064 100.562 236.886 100.405C236.705 100.381 236.508 100.347 236.273 100.309C235.061 100.111 233.104 99.7788 230.468 100.3C229.533 100.488 228.687 100.823 227.881 101.165C226.702 101.666 225.62 102.178 224.379 102.306C224.193 102.325 223.985 102.282 223.794 102.243C223.551 102.194 223.338 102.154 223.243 102.257C223.16 102.348 223.06 102.446 222.948 102.549C222.631 102.805 222.224 103.092 221.795 103.392C221.344 103.707 220.863 104.037 220.424 104.365C216.726 105.314 213.063 106.051 209.463 106.721C207.811 107.028 206.18 107.319 204.568 107.61C203.69 107.393 202.808 107.212 201.895 107.117C200.717 106.994 199.2 107.132 197.449 107.372C197.04 107.428 196.6 107.496 196.194 107.564C195.065 107.78 193.824 107.983 192.458 108.151C188.706 108.608 185.041 109.464 182.741 110.187C182.254 110.339 181.767 110.495 181.247 110.664C179.29 111.311 176.785 112.074 172.334 113.557C168.855 114.726 165.83 115.936 164.617 116.779C164.01 117.168 163.458 117.483 162.95 117.763C161.368 118.622 160.215 119.164 159.348 119.622C157.872 120.393 156.156 121.274 154.512 122.206C151.93 123.653 149.515 125.28 148.222 126.317C147.755 126.687 147.29 127.079 146.781 127.519C145.388 128.73 143.733 130.243 141.519 132.37C139.2 134.619 137.741 136.016 136.156 137.443C135.53 138.01 134.781 138.405 134.044 138.786C132.984 139.346 131.877 139.951 130.955 141.298C130.744 141.608 130.553 141.957 130.351 142.331C129.977 143.018 129.581 143.768 129.021 144.402C128.825 144.626 128.603 144.789 128.386 144.952C128.242 145.059 128.101 145.165 127.968 145.289C127.875 145.378 127.786 145.473 127.705 145.58C126.949 146.574 126.285 147.506 125.753 148.302C125.063 149.328 124.585 150.14 124.231 150.611C123.599 151.45 123.197 152.496 122.868 153.593C122.618 154.428 122.407 155.293 122.132 156.145C121.336 158.544 120.836 162.284 120.763 166.325C120.731 167.856 120.437 169.134 120.085 170.792C119.866 171.828 119.626 173.034 119.433 174.504C119.323 175.37 119.455 176.075 119.579 176.754C119.693 177.381 119.801 177.963 119.712 178.536C119.633 179.048 119.353 179.373 119.087 179.684C118.791 180.036 118.513 180.349 118.554 180.893C118.576 181.183 118.705 181.54 118.859 181.97C118.92 182.14 118.984 182.323 119.048 182.517C118.993 182.506 118.944 182.503 118.907 182.502C118.81 182.501 118.728 182.577 118.657 182.702C118.535 182.909 118.443 183.259 118.352 183.61C118.294 183.831 118.238 184.054 118.174 184.237C117.939 184.93 117.886 186.162 117.885 187.154C117.885 187.559 117.799 187.928 117.699 188.363C117.61 188.747 117.509 189.201 117.448 189.741C117.413 190.054 117.334 190.295 117.269 190.496C117.221 190.641 117.18 190.765 117.169 190.881C117.159 190.981 117.234 191.063 117.318 191.155C117.379 191.221 117.444 191.293 117.487 191.381C117.588 191.595 117.617 191.857 117.582 192.041C117.566 192.127 117.536 192.194 117.506 192.261C117.471 192.339 117.436 192.417 117.423 192.524C117.364 193.018 117.446 193.503 117.531 194.013C117.625 194.562 117.723 195.13 117.642 195.773C117.617 195.975 117.56 196.191 117.505 196.401C117.448 196.622 117.392 196.829 117.377 197.007C117.314 197.729 117.498 198.418 117.668 199.056C117.78 199.481 117.887 199.868 117.91 200.236C117.952 200.907 118.176 201.273 118.342 201.542C118.428 201.682 118.498 201.796 118.519 201.916C118.512 202.024 118.504 202.132 118.496 202.239C118.479 202.336 118.461 202.438 118.466 202.533C118.466 202.54 118.467 202.547 118.468 202.554C118.41 203.153 118.33 203.745 118.251 204.337C118.072 205.65 117.895 206.969 117.99 208.338C118.01 208.634 118.103 208.937 118.197 209.246C118.313 209.623 118.431 210.014 118.422 210.406C118.4 211.337 118.246 212.285 118.094 213.221C117.865 214.613 117.643 215.996 117.889 217.248C117.97 217.663 118.105 218.069 118.242 218.477C118.318 218.703 118.394 218.933 118.461 219.161C118.337 219.113 118.221 219.087 118.113 219.063C117.89 219.014 117.698 218.972 117.536 218.75C117.151 218.228 116.622 217.637 116.237 217.703C116.133 217.721 116.016 217.707 115.899 217.691C115.605 217.652 115.304 217.612 115.169 218.098C115.078 218.425 114.87 219.267 115.096 219.799C115.145 219.915 115.242 219.985 115.35 220.064C115.545 220.205 115.775 220.372 115.829 220.878C115.839 220.964 115.847 221.056 115.855 221.152C115.886 221.534 115.921 221.964 116.077 222.122C116.257 222.305 116.463 222.265 116.702 222.219C117.014 222.158 117.385 222.086 117.834 222.48C117.922 222.558 117.953 222.708 117.976 222.821C117.993 222.9 118.006 222.961 118.033 222.967C118.063 222.974 118.127 222.948 118.207 222.916C118.49 222.8 118.985 222.6 119.009 223.428C119.016 223.652 118.993 223.909 118.973 224.139C118.943 224.478 118.918 224.76 118.999 224.797C119.03 224.811 119.063 224.821 119.098 224.829C119.089 225.099 119.081 225.368 119.072 225.637C118.977 225.983 118.987 226.468 119.001 227.075C119.004 227.222 119.008 227.377 119.01 227.538C118.993 228.07 118.976 228.602 118.958 229.134C118.92 229.556 118.856 230.005 118.753 230.479C118.546 231.43 118.201 232.259 117.865 233.068C117.723 233.41 117.582 233.747 117.454 234.09C117.437 233.957 117.417 233.837 117.39 233.745C117.206 233.114 116.852 232.862 116.526 232.631C116.309 232.477 116.105 232.331 115.972 232.089C115.729 231.646 115.448 231.692 115.24 231.726C115.133 231.744 115.044 231.757 114.992 231.699C114.949 231.651 114.929 231.541 114.907 231.427C114.889 231.328 114.87 231.225 114.835 231.16C114.419 230.366 114.181 230.607 113.836 230.958C113.645 231.151 113.422 231.377 113.117 231.482C112.795 231.573 112.7 231.544 112.569 231.127C112.411 231.453 112.254 231.78 112.096 232.107C112.108 232.235 112.208 232.331 112.375 232.465C112.673 232.707 112.787 233.496 112.876 234.114C112.918 234.4 112.954 234.649 113 234.79C113.248 235.536 113.582 235.315 113.877 235.121C114.039 235.015 114.189 234.916 114.305 234.991C114.355 235.023 114.404 234.976 114.454 234.93C114.492 234.893 114.531 234.856 114.572 234.854C114.866 234.842 115.089 235.283 115.295 235.691C115.414 235.925 115.527 236.147 115.646 236.27C115.682 236.307 115.719 236.337 115.755 236.365C115.807 236.405 115.856 236.445 115.899 236.507C115.997 236.648 116.065 236.942 116.138 237.264C116.176 237.429 116.216 237.601 116.262 237.764C116.322 237.975 116.439 238.05 116.561 238.129C116.648 238.185 116.737 238.243 116.811 238.352C116.945 238.548 116.997 238.947 117.045 239.317C117.066 239.478 117.086 239.633 117.112 239.764C117.123 239.818 117.143 239.844 117.171 239.849C117.27 240.459 117.37 241.04 117.469 241.603C117.964 244.436 118.396 246.877 118.164 250.547C118.12 251.232 118.144 251.986 118.201 252.735C118.128 255.132 118.057 257.551 117.99 259.945C117.736 260.43 117.527 261.018 117.369 261.705C117.072 263.014 117.036 264.321 116.999 265.912C116.973 266.982 116.947 268.212 116.834 269.57C116.826 269.669 116.818 269.768 116.809 269.868C116.585 272.392 116.425 275.011 116.428 277.934C116.429 280.84 116.521 284.19 116.643 286.542C116.707 287.804 116.568 289.194 116.443 290.456C116.269 292.249 116.128 293.861 116.618 294.785C116.774 295.078 117.025 295.367 117.269 295.633C117.443 295.826 117.612 296.005 117.743 296.197C117.76 296.745 117.775 297.252 117.795 297.801C117.621 298.758 117.49 300.264 117.952 301.638C117.979 302.198 118.006 302.737 118.034 303.273C118.097 304.433 118.165 305.568 118.237 306.714C118.261 307.094 118.284 307.461 118.31 307.851C118.31 307.855 118.31 307.858 118.31 307.862C118.36 308.628 118.411 309.401 118.455 310.17C118.463 310.311 118.471 310.45 118.478 310.587C118.489 310.78 118.499 310.969 118.508 311.154C118.55 311.984 118.59 312.828 118.621 313.654C118.636 314.088 118.652 314.535 118.664 314.977C118.683 315.695 118.697 316.424 118.698 317.145C118.702 318.315 118.67 319.494 118.587 320.658C118.574 320.847 118.53 321.03 118.462 321.162C118.394 321.295 118.308 321.37 118.22 321.37C118.132 321.37 118.047 321.294 117.979 321.161C117.912 321.028 117.868 320.847 117.853 320.66C117.765 319.51 117.629 318.372 117.46 317.233C117.357 316.532 117.241 315.825 117.121 315.126C117.047 314.696 116.97 314.261 116.893 313.839C116.747 313.034 116.592 312.211 116.435 311.402C116.401 311.223 116.365 311.041 116.329 310.855C116.303 310.722 116.276 310.586 116.248 310.447C116.099 309.703 115.943 308.945 115.788 308.19C115.787 308.186 115.787 308.181 115.786 308.177C115.708 307.795 115.634 307.437 115.558 307.064C115.329 305.933 115.105 304.804 114.887 303.649C114.772 303.048 114.658 302.428 114.547 301.811C114.485 301.473 114.421 301.11 114.363 300.785C114.33 300.602 114.298 300.414 114.265 300.223C113.513 295.907 112.881 291.588 112.327 287.23C111.775 282.877 111.303 278.537 110.887 274.169C110.748 272.719 110.615 271.265 110.487 269.784C110.236 266.891 110.005 264 109.79 261.101C107.901 234.983 106.776 208.806 106.393 182.517C106.375 180.902 106.369 179.34 106.379 177.754C106.405 173.697 106.533 169.497 106.889 165.273C107.263 161.029 107.806 156.738 109.123 152.142C109.531 150.736 110.028 149.283 110.649 147.805Z" fill="#68ECE8"/>
<path d="M156.51 187.617C156.595 186.43 156.618 185.502 157.041 183.505C157.668 180.846 158.811 178.605 159.804 176.939C160.761 175.202 161.353 174.801 161.819 174.32C162.309 173.865 162.711 173.555 163.063 173.296C163.805 172.751 164.424 172.367 165.053 171.989C166.28 171.26 167.432 170.654 168.575 170.059C170.857 168.877 173.064 167.775 175.23 166.551C182.918 162.23 190.184 157.129 197.936 153.102C198.743 152.684 199.532 152.295 200.358 151.911C205.92 149.213 212.995 146.895 218.191 145.435C222.357 144.087 226.2 143.646 229.832 143.323C239.88 142.554 249.323 142.801 258.915 143.048C262.028 143.14 265.138 143.253 268.266 143.381C274.454 143.687 280.695 143.372 287.217 143.253C289.585 143.215 291.963 143.22 294.339 143.28L294.274 143.284C296.523 143.259 299.491 143.057 302.046 143.201C303.623 143.262 305.189 143.353 306.746 143.451C309.587 143.632 312.411 143.841 315.239 144.056C317.348 144.217 319.457 144.382 321.566 144.547C321.859 144.57 322.14 144.665 322.347 144.815C322.554 144.965 322.671 145.158 322.671 145.357C322.67 145.556 322.552 145.749 322.345 145.899C322.137 146.049 321.856 146.142 321.563 146.164C319.437 146.325 317.311 146.485 315.188 146.65C312.828 146.833 310.477 147.02 308.127 147.222C307.752 146.409 307.231 145.795 306.274 145.536C305.783 145.404 305.076 145.358 304.553 145.521C304.085 145.668 303.738 145.92 303.412 146.161C303.067 146.413 302.75 146.653 302.325 146.75C302.277 146.761 302.229 146.773 302.182 146.786C301.519 146.966 300.906 147.32 300.272 147.7C300.029 147.848 299.776 148.001 299.526 148.148C298.002 148.368 296.572 148.748 294.705 149.014C294.688 149.015 294.64 149.019 294.624 149.019C294.004 149.096 293.392 149.176 292.782 149.259C291.921 149.224 291.139 149.208 290.473 149.292C289.879 149.366 289.346 149.582 288.821 149.842C288.484 149.895 288.14 149.95 287.804 150.005C285.611 150.361 283.409 150.751 281.167 151.133C279.384 151.091 277.5 151.065 275.049 151.152C273.992 151.189 272.942 151.136 271.934 151.074C270.699 150.999 269.529 150.911 268.47 150.966C268.254 150.977 268.043 150.995 267.839 151.02C267.033 151.121 266.211 151.029 265.375 150.938C264.221 150.817 263.154 150.695 262.121 151.043C261.485 151.261 260.913 151.52 260.39 151.76C259.536 152.144 258.785 152.48 258.119 152.526C256.835 152.612 255.76 152.912 254.782 153.179C253.615 153.5 252.659 153.771 251.78 153.562C251.648 153.53 251.498 153.487 251.33 153.438C250.439 153.178 248.987 152.765 246.979 153.136C246.262 153.268 245.582 153.55 244.953 153.826C243.986 154.231 243.101 154.624 242.083 154.542C241.933 154.529 241.773 154.445 241.629 154.369C241.448 154.272 241.277 154.188 241.189 154.277C240.928 154.54 240.511 154.84 240.074 155.166C239.755 155.406 239.39 155.662 239.079 155.927C236.55 156.263 234.031 156.631 231.612 157.071C230.507 157.273 229.429 157.489 228.389 157.729C227.779 157.465 227.177 157.244 226.56 157.121C225.758 156.961 224.776 157.084 223.62 157.311C223.294 157.376 222.957 157.449 222.605 157.528C221.813 157.737 220.95 157.933 220.027 158.095C217.279 158.561 214.921 159.494 213.459 160.337C213.152 160.512 212.84 160.695 212.517 160.89C211.276 161.642 209.743 162.582 206.76 164.38C205.957 164.864 205.213 165.311 204.47 165.75C202.533 166.894 200.836 167.829 199.463 168.589C198.486 169.129 197.685 169.573 197.073 169.943C196.031 170.572 194.754 171.319 193.461 172.078C191.448 173.26 189.432 174.459 188.341 175.206C187.947 175.474 187.537 175.765 187.107 176.073C185.893 176.939 184.435 177.982 182.387 179.281C180.244 180.643 178.852 181.358 177.399 182.01C176.821 182.269 176.176 182.301 175.514 182.339C174.602 182.377 173.601 182.453 172.847 183.162C172.663 183.334 172.524 183.527 172.379 183.736C172.155 184.077 171.874 184.556 172.011 184.324C172.078 184.201 172.202 183.986 172.487 183.257C172.486 183.258 172.486 183.258 172.485 183.259C172.315 183.395 172.153 183.523 172.061 183.703C171.717 184.374 171.496 184.956 171.347 185.44C171.202 185.907 171.123 186.277 171.041 186.543C171.034 186.535 171.009 186.595 170.981 186.652C170.772 187.108 170.796 188.125 170.852 189.073C170.894 189.801 170.942 190.601 170.886 191.335C170.724 193.485 170.83 196.528 171.082 199.682C171.177 200.892 170.944 201.881 170.645 203.166C170.458 203.966 170.244 204.888 170.068 206.007C169.968 206.655 170.117 207.207 170.255 207.719C170.381 208.191 170.497 208.642 170.402 209.075C170.317 209.461 170.016 209.698 169.731 209.923C169.413 210.174 169.114 210.41 169.151 210.82C169.171 211.039 169.304 211.312 169.461 211.639C169.523 211.769 169.588 211.907 169.653 212.054C169.595 212.044 169.542 212.04 169.502 212.038C169.222 212.027 169.054 212.437 168.89 212.841C168.824 213.003 168.759 213.164 168.687 213.296C168.423 213.788 168.338 214.716 168.312 215.439C168.302 215.744 168.2 216.022 168.082 216.332C167.977 216.61 167.859 216.925 167.778 217.334C167.731 217.567 167.64 217.744 167.564 217.89C167.509 217.997 167.463 218.083 167.447 218.167C167.433 218.239 167.511 218.303 167.598 218.374C167.66 218.425 167.728 218.481 167.771 218.547C167.873 218.705 167.895 218.903 167.852 219.039C167.832 219.102 167.798 219.151 167.764 219.199C167.725 219.256 167.685 219.312 167.668 219.391C167.589 219.757 167.66 220.122 167.735 220.493C167.816 220.904 167.901 221.334 167.791 221.806C167.757 221.954 167.689 222.113 167.623 222.26C167.554 222.416 167.487 222.567 167.464 222.698C167.37 223.23 167.54 223.751 167.695 224.233C167.799 224.549 167.896 224.845 167.905 225.118C167.922 225.618 168.146 225.902 168.311 226.112C168.396 226.221 168.467 226.31 168.484 226.399C168.472 226.48 168.459 226.561 168.445 226.639C168.422 226.71 168.399 226.784 168.4 226.854C168.401 226.86 168.401 226.865 168.401 226.87C168.314 227.309 168.202 227.741 168.09 228.172C167.849 229.106 167.61 230.001 167.617 230.992C167.617 231.035 167.618 231.078 167.619 231.121C167.625 231.351 167.707 231.588 167.791 231.826C167.892 232.121 167.995 232.431 167.962 232.724C167.881 233.443 167.654 234.141 167.423 234.841C167.077 235.887 166.726 236.901 166.866 237.895C166.913 238.222 167.015 238.552 167.118 238.883C167.174 239.07 167.232 239.254 167.278 239.439C167.153 239.383 167.032 239.348 166.92 239.314C166.689 239.244 166.492 239.184 166.343 238.993C165.992 238.534 165.488 238.025 165.074 238.021C164.962 238.02 164.84 237.994 164.718 237.966C164.41 237.896 164.096 237.83 163.907 238.17C163.779 238.399 163.473 238.996 163.654 239.423C163.694 239.515 163.789 239.584 163.894 239.66C164.084 239.797 164.309 239.955 164.308 240.344C164.308 240.41 164.306 240.48 164.303 240.553C164.293 240.838 164.276 241.172 164.422 241.313C164.588 241.482 164.81 241.488 165.068 241.493C165.404 241.5 165.804 241.509 166.226 241.888C166.309 241.963 166.322 242.082 166.333 242.171C166.339 242.236 166.345 242.285 166.372 242.294C166.404 242.305 166.474 242.296 166.563 242.285C166.876 242.244 167.423 242.183 167.339 242.822C167.315 242.996 167.256 243.19 167.204 243.359C167.125 243.617 167.06 243.819 167.14 243.866C167.17 243.882 167.204 243.896 167.239 243.909C167.192 244.115 167.145 244.313 167.097 244.517C166.949 244.754 166.889 245.126 166.817 245.569C166.799 245.678 166.781 245.792 166.76 245.907C166.667 246.289 166.575 246.66 166.487 247.019C166.391 247.3 166.267 247.586 166.104 247.871C165.989 248.073 165.86 248.257 165.723 248.429C165.458 248.826 165.156 249.191 164.859 249.541C164.666 249.772 164.477 249.981 164.298 250.214C164.297 250.112 164.291 250.021 164.275 249.949C164.16 249.467 163.821 249.205 163.507 248.982C163.298 248.832 163.1 248.696 162.991 248.487C162.79 248.114 162.488 248.105 162.265 248.093C162.15 248.088 162.055 248.083 162.007 248.031C161.972 247.994 161.962 247.925 161.953 247.851C161.952 247.841 161.951 247.832 161.95 247.823C161.942 247.752 161.933 247.678 161.905 247.627C161.562 247.004 161.285 247.122 160.878 247.311C160.657 247.413 160.399 247.535 160.072 247.562C160.067 247.562 160.063 247.562 160.058 247.563C159.867 247.568 159.752 247.56 159.671 247.5C159.604 247.449 159.562 247.361 159.523 247.211C159.448 247.288 159.373 247.366 159.299 247.443C159.17 247.57 159.04 247.701 158.909 247.836C158.905 247.93 158.998 248.023 159.158 248.144C159.443 248.363 159.464 248.956 159.48 249.422C159.486 249.641 159.495 249.818 159.526 249.929C159.691 250.517 160.071 250.418 160.406 250.325C160.59 250.276 160.76 250.231 160.873 250.306C160.921 250.338 160.979 250.312 161.037 250.287C161.082 250.267 161.128 250.247 161.171 250.253C161.482 250.295 161.659 250.661 161.827 250.983C161.923 251.17 162.014 251.352 162.124 251.462C162.157 251.496 162.192 251.524 162.226 251.55C162.276 251.588 162.324 251.624 162.362 251.675C162.447 251.792 162.483 252.01 162.522 252.255C162.541 252.381 162.562 252.51 162.592 252.631C162.63 252.789 162.745 252.862 162.865 252.938C162.949 252.992 163.036 253.049 163.102 253.139C163.219 253.303 163.228 253.59 163.237 253.858C163.24 253.975 163.245 254.089 163.257 254.187C163.262 254.226 163.281 254.248 163.309 254.256C163.346 254.693 163.388 255.126 163.434 255.529C163.665 257.585 163.897 259.314 163.411 261.827C163.32 262.304 163.301 262.818 163.321 263.342C163.115 265 162.954 266.664 162.844 268.329C162.565 268.662 162.334 269.067 162.161 269.557C161.836 270.467 161.801 271.406 161.787 272.513C161.776 273.328 161.776 274.238 161.691 275.313C161.549 277.118 161.525 278.984 161.763 281.057C161.863 281.919 161.995 282.827 162.152 283.72C162.376 284.989 162.621 286.188 162.845 287.168C163.052 288.072 163.056 289.085 163.071 290.039C163.089 291.367 163.131 292.578 163.743 293.126C163.94 293.307 164.232 293.449 164.515 293.585C164.717 293.681 164.914 293.776 165.071 293.878C165.148 294.261 165.228 294.646 165.306 295.022C165.238 295.77 165.27 296.884 165.903 297.77C165.991 298.161 166.082 298.553 166.169 298.935C166.361 299.756 166.559 300.576 166.758 301.385C166.825 301.656 166.892 301.925 166.958 302.19C166.959 302.192 166.959 302.195 166.96 302.198C167.099 302.748 167.239 303.293 167.377 303.828C167.435 304.056 167.499 304.295 167.558 304.522C167.712 305.108 167.872 305.704 168.024 306.28C168.109 306.597 168.187 306.894 168.274 307.215C168.405 307.711 168.548 308.24 168.678 308.744C168.893 309.577 169.108 310.404 169.273 311.29C169.299 311.435 169.29 311.584 169.245 311.708C169.2 311.828 169.122 311.9 169.031 311.921C168.939 311.94 168.839 311.908 168.745 311.829C168.651 311.747 168.572 311.635 168.52 311.507C168.196 310.723 167.816 309.967 167.438 309.207C167.207 308.747 166.961 308.26 166.729 307.804C166.579 307.506 166.44 307.234 166.292 306.939C166.022 306.407 165.744 305.85 165.473 305.303C165.367 305.091 165.257 304.866 165.152 304.654C164.905 304.151 164.656 303.637 164.407 303.116C164.406 303.113 164.404 303.11 164.403 303.107C164.284 302.859 164.163 302.606 164.043 302.351C163.681 301.586 163.321 300.805 162.967 300.019C162.781 299.608 162.594 299.185 162.406 298.758C162.301 298.516 162.199 298.284 162.099 298.053C162.044 297.926 161.989 297.796 161.933 297.665C160.656 294.684 159.488 291.678 158.417 288.591C157.985 287.343 157.577 286.115 157.178 284.852C156.583 282.956 156.067 281.031 155.63 279.088C154.897 275.825 154.387 272.514 154.083 269.171C153.357 261.667 153.896 253.799 154.647 246.729C155.439 240.543 155.875 235.793 155.944 230.16C156.079 222.826 156.142 215.519 156.186 208.176C156.204 205.287 156.222 202.334 156.247 199.418C156.274 196.488 156.301 193.592 156.389 190.547C156.417 189.623 156.452 188.661 156.51 187.617Z" fill="#6DC4FA"/>
<path d="M240.96 240.42C244.498 235.668 249.062 232.254 253.081 228.31C255.955 225.486 258.656 222.53 261.183 219.596C263.163 217.31 265.207 215.081 267.408 213.032C272.55 208.247 277.98 203.67 283.627 199.445C289.274 195.204 295.188 191.346 301.104 187.707C302.063 187.114 303.019 186.525 303.965 185.939C310.491 182.03 316.66 183.678 321.951 182.695C322.01 182.68 322.188 182.663 322.249 182.657C322.29 182.658 322.331 182.658 322.372 182.659C327.061 182.718 331.741 182.727 336.403 182.498C338.447 182.396 340.487 182.239 342.526 182.013C343.226 181.936 343.926 181.851 344.626 181.761C344.629 181.76 344.637 181.759 344.64 181.758C345.496 181.67 346.354 181.673 347.191 181.72C347.407 181.732 347.613 181.791 347.764 181.885C347.915 181.978 348 182.099 348 182.223C348 182.348 347.914 182.468 347.763 182.562C347.612 182.656 347.41 182.714 347.201 182.731C346.391 182.793 345.616 182.897 344.861 183.079L344.887 183.074C344.185 183.261 343.48 183.443 342.771 183.617C341.076 184.033 339.374 184.402 337.657 184.729C337.321 184.257 336.905 183.919 336.189 183.829C335.829 183.783 335.307 183.804 334.936 183.938C334.601 184.059 334.364 184.236 334.128 184.405C333.891 184.58 333.658 184.748 333.348 184.828C332.826 184.963 332.339 185.224 331.822 185.497C331.637 185.595 331.447 185.696 331.247 185.793C329.608 186.031 327.952 186.249 326.314 186.451C325.669 186.436 325.09 186.426 324.585 186.475C324.15 186.518 323.734 186.649 323.341 186.804C323.089 186.833 322.833 186.861 322.575 186.89C322.538 186.894 322.5 186.898 322.462 186.903L322.818 186.857C321.168 187.302 319.501 187.629 317.878 187.906C316.559 187.92 315.2 187.901 313.546 188.06C312.835 188.13 312.144 188.166 311.496 188.23C310.541 188.321 309.669 188.48 309.003 188.825C308.56 189.054 308.067 189.208 307.582 189.402C307.276 189.524 306.975 189.662 306.7 189.837C306.347 190.064 306.018 190.322 305.755 190.632C305.448 190.997 305.176 191.37 304.934 191.708C304.546 192.249 304.204 192.724 303.805 193.019C303.052 193.575 302.484 194.171 301.987 194.695C301.386 195.328 300.883 195.861 300.288 196.094C300.198 196.13 300.091 196.168 299.971 196.21C299.33 196.438 298.325 196.789 297.22 197.8C296.834 198.155 296.524 198.571 296.222 198.981C295.793 199.569 295.364 200.154 294.73 200.515C294.634 200.569 294.507 200.591 294.392 200.611C294.244 200.637 294.115 200.66 294.092 200.743C294.024 200.985 293.878 201.309 293.715 201.664C293.596 201.925 293.466 202.204 293.363 202.473C291.92 203.693 290.5 204.922 289.089 206.171C288.433 206.751 287.802 207.317 287.158 207.899C286.675 208.004 286.196 208.137 285.726 208.33C285.123 208.573 284.455 209.06 283.618 209.678C282.997 210.137 282.277 210.674 281.398 211.264C279.779 212.346 278.337 213.748 277.507 214.714C277.33 214.919 277.153 215.128 276.964 215.353C276.251 216.203 275.367 217.256 273.622 219.208C271.969 221.059 270.538 222.562 269.452 223.717C268.896 224.307 268.45 224.786 268.109 225.176C267.947 225.363 267.772 225.561 267.589 225.769C267.104 226.318 266.557 226.918 266.009 227.511C264.816 228.803 263.611 230.067 262.967 230.815C262.737 231.082 262.502 231.363 262.246 231.668C261.54 232.511 260.687 233.524 259.464 234.834C258.183 236.209 257.331 236.987 256.413 237.753C256.038 238.066 255.604 238.235 255.154 238.414C254.515 238.668 253.852 238.934 253.317 239.641C253.194 239.805 253.08 239.997 252.961 240.198C252.744 240.569 252.512 240.969 252.174 241.285C252.055 241.395 251.921 241.466 251.79 241.537C251.646 241.614 251.504 241.691 251.39 241.816C250.965 242.284 250.569 242.767 250.229 243.19C249.786 243.74 249.423 244.207 249.157 244.462C248.681 244.92 248.299 245.524 247.92 246.144C247.631 246.617 247.348 247.092 247.021 247.522C246.093 248.738 245.012 250.555 244.095 252.515C243.745 253.26 243.296 253.786 242.725 254.483C242.374 254.911 241.969 255.419 241.538 256.067C241.293 256.437 241.215 256.826 241.149 257.179C241.089 257.504 241.035 257.805 240.859 258.058C240.704 258.281 240.467 258.357 240.241 258.431C239.991 258.512 239.756 258.587 239.669 258.859C239.622 259.004 239.627 259.21 239.635 259.454C239.638 259.55 239.64 259.653 239.641 259.761C239.61 259.741 239.58 259.727 239.557 259.717C239.398 259.643 239.191 259.877 238.995 260.098C238.917 260.187 238.839 260.276 238.764 260.345C238.491 260.598 238.209 261.199 238.028 261.661C237.951 261.856 237.829 262.012 237.687 262.197C237.561 262.36 237.419 262.546 237.28 262.802C237.23 262.893 237.176 262.966 237.123 263.028C237.09 263.068 237.058 263.103 237.028 263.136C236.971 263.199 236.922 263.252 236.894 263.307C236.869 263.355 236.9 263.414 236.935 263.48C236.961 263.527 236.989 263.579 236.999 263.633C237.023 263.762 236.991 263.903 236.934 263.988C236.908 264.027 236.876 264.054 236.845 264.081C236.808 264.113 236.772 264.144 236.743 264.196C236.612 264.434 236.572 264.697 236.53 264.968C236.484 265.268 236.434 265.584 236.263 265.885C236.209 265.979 236.133 266.073 236.059 266.165C235.981 266.261 235.907 266.354 235.863 266.44C235.684 266.791 235.667 267.179 235.651 267.537C235.641 267.775 235.632 267.996 235.575 268.187C235.471 268.536 235.541 268.77 235.593 268.943C235.62 269.033 235.643 269.106 235.633 269.171C235.608 269.223 235.581 269.277 235.555 269.328C235.526 269.374 235.495 269.42 235.48 269.469C235.479 269.473 235.478 269.477 235.477 269.481C235.325 269.768 235.163 270.042 235 270.317C234.636 270.931 234.277 271.537 234.072 272.247C234.029 272.399 234.029 272.571 234.029 272.747C234.029 272.962 234.03 273.182 233.95 273.375C233.76 273.834 233.485 274.266 233.216 274.692C232.812 275.333 232.419 275.961 232.343 276.641C232.318 276.865 232.329 277.097 232.34 277.329C232.347 277.458 232.354 277.588 232.354 277.717C232.286 277.665 232.217 277.626 232.154 277.589C232.023 277.514 231.911 277.449 231.849 277.303C231.702 276.957 231.479 276.542 231.226 276.486C231.158 276.471 231.087 276.437 231.017 276.403C230.84 276.315 230.659 276.226 230.486 276.438C230.369 276.579 230.085 276.951 230.13 277.27C230.139 277.339 230.188 277.396 230.241 277.46C230.338 277.574 230.452 277.71 230.395 277.975C230.385 278.019 230.374 278.067 230.362 278.117C230.313 278.315 230.259 278.535 230.329 278.649C230.409 278.781 230.545 278.807 230.704 278.837C230.911 278.876 231.157 278.923 231.369 279.219C231.411 279.277 231.404 279.358 231.399 279.419C231.395 279.463 231.393 279.496 231.408 279.505C231.426 279.515 231.471 279.516 231.527 279.518C231.725 279.523 232.071 279.534 231.942 279.949C231.907 280.061 231.848 280.182 231.796 280.291C231.718 280.452 231.654 280.585 231.699 280.622C231.716 280.635 231.735 280.647 231.756 280.659C231.704 280.791 231.652 280.922 231.601 281.053C231.482 281.203 231.406 281.445 231.312 281.748C231.289 281.822 231.265 281.899 231.24 281.978C231.14 282.237 231.04 282.499 230.941 282.758C230.847 282.958 230.733 283.167 230.589 283.382C230.304 283.81 229.951 284.154 229.607 284.489C229.463 284.63 229.32 284.771 229.184 284.918C229.194 284.847 229.2 284.783 229.198 284.732C229.182 284.378 228.997 284.183 228.827 284.001C228.714 283.879 228.608 283.764 228.563 283.615C228.481 283.342 228.295 283.309 228.158 283.283C228.087 283.27 228.029 283.259 228.005 283.219C227.986 283.186 227.991 283.126 227.996 283.065C228 283.011 228.005 282.955 227.994 282.915C227.861 282.431 227.671 282.502 227.394 282.608C227.241 282.667 227.062 282.735 226.851 282.726C226.631 282.706 226.576 282.672 226.562 282.433C226.408 282.567 226.254 282.701 226.1 282.836C226.086 282.904 226.134 282.974 226.217 283.077C226.366 283.262 226.31 283.684 226.267 284.019C226.247 284.173 226.23 284.309 226.237 284.389C226.276 284.817 226.524 284.77 226.743 284.73C226.863 284.708 226.974 284.687 227.036 284.748C227.063 284.774 227.101 284.76 227.14 284.746C227.171 284.736 227.202 284.725 227.228 284.732C227.417 284.784 227.489 285.049 227.556 285.297C227.595 285.438 227.632 285.574 227.689 285.659C227.706 285.685 227.725 285.707 227.743 285.728C227.77 285.759 227.795 285.789 227.813 285.829C227.853 285.919 227.851 286.079 227.849 286.255C227.848 286.346 227.846 286.44 227.851 286.531C227.857 286.649 227.92 286.71 227.986 286.773C228.033 286.818 228.081 286.865 228.112 286.934C228.167 287.06 228.14 287.268 228.115 287.464C228.104 287.549 228.094 287.631 228.091 287.703C228.09 287.732 228.099 287.748 228.116 287.756C228.087 288.084 228.067 288.391 228.047 288.695C227.95 290.215 227.883 291.52 227.24 293.346C227.208 293.437 227.179 293.53 227.152 293.625C227.075 293.899 227.016 294.188 226.969 294.48C226.601 295.696 226.235 296.927 225.875 298.16C225.647 298.369 225.437 298.628 225.242 298.968C224.878 299.6 224.684 300.269 224.454 301.084C224.286 301.677 224.098 302.346 223.816 303.103C223.341 304.384 222.9 305.705 222.518 307.227C222.138 308.739 221.758 310.474 221.522 311.72C221.394 312.385 221.117 313.083 220.865 313.721C220.508 314.623 220.193 315.444 220.383 315.987C220.443 316.167 220.567 316.35 220.688 316.525C220.773 316.651 220.857 316.774 220.916 316.89C220.852 317.164 220.788 317.445 220.724 317.726C220.475 318.198 220.174 318.958 220.274 319.736C220.21 320.028 220.149 320.314 220.089 320.588C219.958 321.207 219.833 321.798 219.711 322.396C219.671 322.584 219.63 322.796 219.59 322.993C219.59 322.995 219.589 322.997 219.589 322.999C219.51 323.392 219.429 323.809 219.354 324.198C219.322 324.36 219.288 324.543 219.257 324.712C219.177 325.137 219.096 325.587 219.022 326.007C218.981 326.241 218.942 326.467 218.904 326.693C218.84 327.077 218.78 327.444 218.723 327.821C218.631 328.431 218.546 329.027 218.479 329.631C218.468 329.735 218.437 329.829 218.392 329.896C218.346 329.963 218.289 330 218.23 330C218.172 330 218.115 329.963 218.07 329.894C218.025 329.825 217.997 329.728 217.989 329.623C217.943 329.006 217.916 328.395 217.897 327.769C217.886 327.384 217.877 327.008 217.873 326.613C217.87 326.381 217.868 326.149 217.868 325.908C217.865 325.477 217.868 325.013 217.872 324.575C217.874 324.402 217.877 324.213 217.879 324.046C217.884 323.644 217.894 323.214 217.904 322.806C217.904 322.804 217.904 322.801 217.905 322.799C217.91 322.597 217.917 322.38 217.922 322.187C217.941 321.569 217.963 320.958 217.993 320.317C218.006 319.998 218.023 319.661 218.041 319.319C218.051 319.127 218.06 318.949 218.07 318.765C218.075 318.665 218.081 318.563 218.087 318.46C218.221 316.111 218.402 313.782 218.626 311.44C218.848 309.108 219.113 306.767 219.412 304.439C219.712 302.103 220.046 299.784 220.413 297.462C220.689 295.713 220.981 293.973 221.294 292.219C223.127 281.297 226.872 270.588 230.384 260.439C231.136 258.252 231.988 256.095 232.945 253.978C233.872 251.926 234.927 249.862 236.051 247.899C237.188 245.914 238.393 244.023 239.708 242.151C240.11 241.578 240.521 241.01 240.96 240.42Z" fill="#0FFAEA"/>
<defs>
<filter id="filter0_d_1_54" x="0" y="0" width="373" height="352" filterUnits="userSpaceOnUse" color-interpolation-filters="sRGB">
<feFlood flood-opacity="0" result="BackgroundImageFix"/>
<feColorMatrix in="SourceAlpha" type="matrix" values="0 0 0 0 0 0 0 0 0 0 0 0 0 0 0 0 0 0 127 0" result="hardAlpha"/>
<feOffset dy="4"/>
<feGaussianBlur stdDeviation="2"/>
<feComposite in2="hardAlpha" operator="out"/>
<feColorMatrix type="matrix" values="0 0 0 0 0 0 0 0 0 0 0 0 0 0 0 0 0 0 0.25 0"/>
<feBlend mode="normal" in2="BackgroundImageFix" result="effect1_dropShadow_1_54"/>
<feBlend mode="normal" in="SourceGraphic" in2="effect1_dropShadow_1_54" result="shape"/>
</filter>
</defs>
</svg>
